<?xml version="1.0" encoding="UTF-8" standalone="no"?>
<!-- Created with Inkscape (http://www.inkscape.org/) -->

<svg
   width="94.061058mm"
   height="74.058098mm"
   viewBox="0 0 94.061058 74.058098"
   version="1.1"
   id="svg5"
   inkscape:version="1.1.1 (1:1.1+202109281949+c3084ef5ed)"
   sodipodi:docname="js.svg"
   xmlns:inkscape="http://www.inkscape.org/namespaces/inkscape"
   xmlns:sodipodi="http://sodipodi.sourceforge.net/DTD/sodipodi-0.dtd"
   xmlns="http://www.w3.org/2000/svg"
   xmlns:svg="http://www.w3.org/2000/svg">
  <sodipodi:namedview
     id="namedview7"
     pagecolor="#ffffff"
     bordercolor="#666666"
     borderopacity="1.0"
     inkscape:pageshadow="2"
     inkscape:pageopacity="0.0"
     inkscape:pagecheckerboard="0"
     inkscape:document-units="mm"
     showgrid="false"
     inkscape:snap-text-baseline="true"
     inkscape:snap-smooth-nodes="false"
     inkscape:zoom="0.75187991"
     inkscape:cx="-240.06493"
     inkscape:cy="273.31492"
     inkscape:window-width="1920"
     inkscape:window-height="1016"
     inkscape:window-x="0"
     inkscape:window-y="27"
     inkscape:window-maximized="1"
     inkscape:current-layer="layer1"
     fit-margin-top="0"
     fit-margin-left="0"
     fit-margin-right="0"
     fit-margin-bottom="0" />
  <defs
     id="defs2">
    <inkscape:path-effect
       effect="simplify"
       id="path-effect28734"
       is_visible="true"
       lpeversion="1"
       steps="1"
       threshold="0.014878"
       smooth_angles="360"
       helper_size="0"
       simplify_individual_paths="false"
       simplify_just_coalesce="false" />
    <inkscape:path-effect
       effect="simplify"
       id="path-effect28389"
       is_visible="true"
       lpeversion="1"
       steps="1"
       threshold="0.014878"
       smooth_angles="360"
       helper_size="0"
       simplify_individual_paths="false"
       simplify_just_coalesce="false" />
    <inkscape:path-effect
       effect="simplify"
       id="path-effect28192"
       is_visible="true"
       lpeversion="1"
       steps="1"
       threshold="0.014878"
       smooth_angles="360"
       helper_size="0"
       simplify_individual_paths="false"
       simplify_just_coalesce="false" />
    <marker
       style="overflow:visible"
       id="Arrow1Lstart"
       refX="0"
       refY="0"
       orient="auto"
       inkscape:stockid="Arrow1Lstart"
       inkscape:isstock="true">
      <path
         transform="matrix(0.8,0,0,0.8,10,0)"
         style="fill:context-stroke;fill-rule:evenodd;stroke:context-stroke;stroke-width:1pt"
         d="M 0,0 5,-5 -12.5,0 5,5 Z"
         id="path25522" />
    </marker>
    <filter
       inkscape:label="Eroded Metal"
       inkscape:menu="Materials"
       inkscape:menu-tooltip="Eroded metal texture with ridges, grooves, holes and bumps"
       style="color-interpolation-filters:sRGB"
       id="filter24326"
       x="-0.28719141"
       y="-0.3573377"
       width="1.5743828"
       height="1.7146754">
      <feGaussianBlur
         result="result0"
         in="SourceGraphic"
         stdDeviation="1"
         id="feGaussianBlur24302" />
      <feTurbulence
         type="turbulence"
         baseFrequency="0.057"
         seed="4"
         numOctaves="4"
         result="result1"
         id="feTurbulence24304" />
      <feDisplacementMap
         xChannelSelector="R"
         in2="result1"
         result="result91"
         id="feDisplacementMap24306"
         scale="0"
         yChannelSelector="A" />
      <feComposite
         result="result2"
         operator="out"
         in="result0"
         in2="result91"
         id="feComposite24308" />
      <feComposite
         k1="0.1"
         k3="1.2"
         in2="result2"
         in="SourceAlpha"
         operator="arithmetic"
         result="result5"
         id="feComposite24310"
         k2="0"
         k4="0" />
      <feBlend
         result="fbSourceGraphic"
         mode="multiply"
         in2="result5"
         id="feBlend24312" />
      <feGaussianBlur
         stdDeviation="3"
         in="fbSourceGraphic"
         result="result0"
         id="feGaussianBlur24314" />
      <feSpecularLighting
         in="result0"
         result="result1"
         lighting-color="#fee65d"
         surfaceScale="3"
         specularConstant="0.40000001"
         specularExponent="15"
         id="feSpecularLighting24318">
        <fePointLight
           x="-5000"
           y="-10000"
           z="20000"
           id="fePointLight24316" />
      </feSpecularLighting>
      <feComposite
         in2="fbSourceGraphic"
         in="result1"
         result="result2"
         operator="in"
         id="feComposite24320" />
      <feComposite
         k1="-1"
         in="fbSourceGraphic"
         result="result4"
         operator="arithmetic"
         k2="2.5"
         k3="3.5"
         in2="result2"
         id="feComposite24322"
         k4="0" />
      <feBlend
         mode="multiply"
         in2="result4"
         id="feBlend24324" />
    </filter>
    <filter
       inkscape:label="Eroded Metal"
       inkscape:menu="Materials"
       inkscape:menu-tooltip="Eroded metal texture with ridges, grooves, holes and bumps"
       style="color-interpolation-filters:sRGB"
       id="filter29770"
       x="-0.18194687"
       y="-0.23132373"
       width="1.3639604"
       height="1.4629104">
      <feGaussianBlur
         result="result0"
         in="SourceGraphic"
         stdDeviation="1"
         id="feGaussianBlur29746" />
      <feTurbulence
         type="turbulence"
         baseFrequency="0.057"
         seed="4"
         numOctaves="4"
         result="result1"
         id="feTurbulence29748" />
      <feDisplacementMap
         xChannelSelector="R"
         in2="result1"
         result="result91"
         id="feDisplacementMap29750"
         scale="0"
         yChannelSelector="A" />
      <feComposite
         result="result2"
         operator="out"
         in="result0"
         in2="result91"
         id="feComposite29752" />
      <feComposite
         k1="0.1"
         k3="1.2"
         in2="result2"
         in="SourceAlpha"
         operator="arithmetic"
         result="result5"
         id="feComposite29754"
         k2="0"
         k4="0" />
      <feBlend
         result="fbSourceGraphic"
         mode="multiply"
         in2="result5"
         id="feBlend29756" />
      <feGaussianBlur
         stdDeviation="3"
         in="fbSourceGraphic"
         result="result0"
         id="feGaussianBlur29758" />
      <feSpecularLighting
         in="result0"
         result="result1"
         lighting-color="#fee65d"
         surfaceScale="3"
         specularConstant="0.40000001"
         specularExponent="15"
         id="feSpecularLighting29762">
        <fePointLight
           x="-5000"
           y="-10000"
           z="20000"
           id="fePointLight29760" />
      </feSpecularLighting>
      <feComposite
         in2="fbSourceGraphic"
         in="result1"
         result="result2"
         operator="in"
         id="feComposite29764" />
      <feComposite
         k1="-1"
         in="fbSourceGraphic"
         result="result4"
         operator="arithmetic"
         k2="2.5"
         k3="3.5"
         in2="result2"
         id="feComposite29766"
         k4="0" />
      <feBlend
         mode="multiply"
         in2="result4"
         id="feBlend29768" />
    </filter>
    <filter
       inkscape:label="Eroded Metal"
       inkscape:menu="Materials"
       inkscape:menu-tooltip="Eroded metal texture with ridges, grooves, holes and bumps"
       style="color-interpolation-filters:sRGB;"
       id="filter10319"
       x="-0.095302965"
       y="-0.13210157"
       width="1.1906059"
       height="1.2642031">
      <feGaussianBlur
         result="result0"
         in="SourceGraphic"
         stdDeviation="1"
         id="feGaussianBlur10295" />
      <feTurbulence
         type="turbulence"
         baseFrequency="0.057"
         seed="4"
         numOctaves="4"
         result="result1"
         id="feTurbulence10297" />
      <feDisplacementMap
         xChannelSelector="R"
         in2="result1"
         result="result91"
         id="feDisplacementMap10299" />
      <feComposite
         result="result2"
         operator="out"
         in="result0"
         in2="result91"
         id="feComposite10301" />
      <feComposite
         k1="0.1"
         k3="1.2"
         in2="result2"
         in="SourceAlpha"
         operator="arithmetic"
         result="result5"
         id="feComposite10303" />
      <feBlend
         result="fbSourceGraphic"
         mode="multiply"
         in2="result5"
         id="feBlend10305" />
      <feGaussianBlur
         stdDeviation="3"
         in="fbSourceGraphic"
         result="result0"
         id="feGaussianBlur10307" />
      <feSpecularLighting
         in="result0"
         result="result1"
         lighting-color="rgb(254,230,93)"
         surfaceScale="3"
         specularConstant="0.4"
         specularExponent="15"
         id="feSpecularLighting10311">
        <fePointLight
           x="-5000"
           y="-10000"
           z="20000"
           id="fePointLight10309" />
      </feSpecularLighting>
      <feComposite
         in2="fbSourceGraphic"
         in="result1"
         result="result2"
         operator="in"
         id="feComposite10313" />
      <feComposite
         k1="-1"
         in="fbSourceGraphic"
         result="result4"
         operator="arithmetic"
         k2="2.5"
         k3="3.5"
         in2="result2"
         id="feComposite10315" />
      <feBlend
         mode="multiply"
         in2="result4"
         id="feBlend10317" />
    </filter>
  </defs>
  <g
     inkscape:label="Capa 1"
     inkscape:groupmode="layer"
     id="layer1"
     transform="translate(-44.893899,-76.498098)">
    <ellipse
       style="fill:#f2f2f2;fill-opacity:1;stroke:none;stroke-width:3.45672;stroke-linecap:round;stroke-linejoin:round;stroke-miterlimit:4;stroke-dasharray:none;stroke-opacity:1"
       id="path10588"
       cx="77.155579"
       cy="138.43274"
       rx="40.671432"
       ry="20.325983"
       transform="matrix(0.99055144,-0.13714171,0.14043323,0.99009015,0,0)" />
    <text
       xml:space="preserve"
       style="font-style:normal;font-weight:normal;font-size:28.7915px;line-height:1.25;font-family:sans-serif;letter-spacing:0px;word-spacing:0px;fill:#000000;fill-opacity:1;stroke:none;stroke-width:0.215936"
       x="70.944656"
       y="127.61298"
       id="text3724"
       inkscape:export-filename="/home/manu/0projects/ticbook4/static/img/create.png"
       inkscape:export-xdpi="96"
       inkscape:export-ydpi="96"
       transform="scale(1.0562106,0.94678087)"><tspan
         sodipodi:role="line"
         id="tspan3722"
         style="font-style:normal;font-variant:normal;font-weight:normal;font-stretch:normal;font-size:28.7915px;font-family:Caveman;-inkscape-font-specification:Caveman;stroke-width:0.215936"
         x="70.944656"
         y="127.61298">JS</tspan></text>
    <path
       style="fill:#008080;fill-opacity:1;stroke:none;stroke-width:4;stroke-linecap:round;stroke-linejoin:round;stroke-miterlimit:4;stroke-dasharray:none;stroke-opacity:1;filter:url(#filter10319)"
       id="path10095"
       d="m 141.18655,82.528009 c -0.80034,-1.612208 -1.89677,-2.997799 -3.16016,-4.26555 -1.50564,-1.505981 -3.26356,-2.69175 -5.09686,-3.754921 -1.63745,-0.951912 -3.39119,-1.657063 -5.17645,-2.27422 -2.35779,-0.779368 -4.76578,-1.37856 -7.21048,-1.805764 -2.66893,-0.457823 -5.35905,-0.738054 -8.06396,-0.836444 -2.1759,-0.07703 -4.34518,0.06051 -6.48472,0.455497 -2.28661,0.491589 -4.51562,1.208291 -6.729144,1.955361 -1.962007,0.663732 -3.891084,1.419707 -5.826794,2.155421 -2.073707,0.700613 -4.030732,1.663099 -5.949379,2.70598 -2.945006,1.49651 -5.644279,3.323067 -8.148373,5.45745 -1.536853,1.325508 -2.90676,2.812346 -4.14298,4.417844 -1.109949,1.446599 -2.065079,2.995465 -2.955814,4.583162 -0.825434,1.472528 -1.695735,2.919017 -2.526996,4.388209 -0.935653,1.704118 -1.744207,3.47336 -2.541838,5.244956 -0.788313,1.81755 -1.540433,3.6509 -2.199061,5.51959 -0.597484,1.6599 -1.06184,3.36152 -1.557007,5.05335 -0.566406,1.93361 -1.275726,3.82073 -2.060476,5.67517 -0.734869,1.71515 -1.568563,3.38502 -2.400669,5.05435 -0.652214,1.37245 -1.444768,2.66393 -2.349282,3.88246 -0.632523,0.84252 -1.338161,1.62514 -2.047852,2.40237 -1.461789,1.65932 -2.84746,3.38314 -4.198073,5.1335 -1.236642,1.69142 -2.564797,3.31153 -3.77993,5.01873 -0.690913,0.96657 -1.387798,1.92886 -2.085751,2.89036 -0.837507,1.17352 -1.322499,0.77308 3.074147,-1.18445 1.572738,-1.68742 3.427742,-3.05355 5.329564,-4.3417 0.492946,-0.29387 0.931852,-0.70794 1.478838,-0.88162 0.497361,-0.15791 -1.713785,0.4843 -1.32551,0.83294 0.406839,0.3653 0.98867,-0.46783 1.490596,-0.6847 1.488307,-0.64308 3.01773,-1.15358 4.557372,-1.65573 2.986218,-0.99304 6.105742,-1.40129 9.223985,-1.70341 2.626342,-0.31225 5.25049,-0.0746 7.861221,0.24422 3.317079,0.50186 6.565268,1.35762 9.851761,2.02028 3.713358,0.76041 7.472317,1.23206 11.240941,1.60794 3.634794,0.35735 7.282944,0.53373 10.934344,0.55607 2.89566,0.0145 5.77943,-0.27738 8.62424,-0.80094 2.80578,-0.57012 5.36653,-1.84364 7.83491,-3.24789 3.79304,-1.98686 6.95131,-4.30851 9.87474,-7.38369 2.14221,-2.3473 3.50871,-5.21753 4.70486,-8.12646 1.04628,-2.87638 2.09197,-5.75424 3.08429,-8.64989 0.91294,-2.64564 1.18577,-5.44632 1.4514,-8.215681 0.17644,-2.043529 0.45034,-4.076495 0.67151,-6.115267 0.20468,-1.675853 0.29209,-3.346568 0.12154,-5.026644 -0.16172,-1.283614 -0.46136,-2.54603 -0.90339,-3.761305 -0.24925,-0.651953 -0.60827,-1.248049 -1.00592,-1.818187 -0.33342,-0.490801 -0.72475,-0.936981 -1.1836,-1.312705 -0.9636,-0.750527 -1.25211,-0.275909 -2.34291,0.329719 0,0 -0.0668,0.04284 -0.0668,0.04284 v 0 c -1.00442,0.742217 -1.66591,0.847145 -0.59373,1.51601 0.44606,0.340516 0.81513,0.75926 1.13045,1.223556 0.37947,0.545837 0.72658,1.113829 0.97349,1.73381 0.44794,1.178611 0.74035,2.411699 0.89091,3.663733 0.14605,1.6557 0.0553,3.307566 -0.14133,4.957333 -0.21973,2.027553 -0.45603,4.053825 -0.60635,6.088138 -0.25671,2.74838 -0.55657,5.5146 -1.47158,8.13683 -0.97861,2.88445 -2.00005,5.75542 -3.05474,8.61271 -1.19442,2.8806 -2.57803,5.70349 -4.73383,8.0027 -1.4136,1.45568 -2.89329,2.78742 -4.53518,3.98461 -0.40185,0.29301 -1.71976,0.80075 -1.22504,0.85164 0.57773,0.0594 1.02506,-0.54633 1.53759,-0.81949 -2.44323,1.42228 -4.98109,2.71426 -7.76203,3.33135 -2.84008,0.56197 -5.72297,0.8669 -8.62076,0.8768 -3.66006,0.005 -7.31844,-0.14473 -10.96266,-0.4971 -3.763999,-0.37061 -7.521201,-0.83012 -11.232334,-1.57421 -3.287456,-0.66995 -6.537706,-1.52219 -9.853052,-2.04867 -2.619311,-0.34077 -5.254207,-0.63847 -7.893797,-0.3088 -3.130077,0.29757 -6.267935,0.67893 -9.272341,1.65235 -2.00477,0.63941 -4.212945,1.30417 -6.075673,2.29057 -1.422169,0.7531 -2.816186,1.55845 -4.212407,2.35863 -0.49782,0.2853 -0.979282,0.59824 -1.468922,0.89736 -1.95229,1.34637 -3.851529,2.77368 -5.508373,4.48034 3.624024,-1.46238 2.424878,-0.32714 3.215604,-1.48251 0.659819,-0.95626 1.326872,-1.90754 2.003092,-2.85228 1.225486,-1.69501 2.542131,-3.32022 3.779629,-5.00639 1.352216,-1.75867 2.751152,-3.48256 4.245187,-5.12352 0.716644,-0.78582 1.434572,-1.57381 2.049191,-2.4442 0.86938,-1.23501 1.623685,-2.53982 2.26888,-3.90652 0.830314,-1.6739 1.6733,-3.34347 2.386019,-5.07213 0.757488,-1.85936 1.443435,-3.74851 1.990363,-5.68153 0.492296,-1.68596 0.974998,-3.37542 1.556889,-5.03344 0.660183,-1.85564 1.386636,-3.68743 2.190019,-5.486038 0.797809,-1.765628 1.601451,-3.531842 2.557689,-5.219016 0.840529,-1.461919 1.693807,-2.916497 2.520548,-4.386314 0.896446,-1.566406 1.845493,-3.102956 2.95374,-4.531057 1.25154,-1.577304 2.623436,-3.048707 4.16012,-4.354951 0.844386,-0.709903 1.695395,-1.401756 2.596478,-2.039657 0.300281,-0.212577 0.604602,-0.419538 0.912281,-0.621257 0.320463,-0.210101 1.316434,-0.781701 0.971872,-0.614021 -0.583554,0.283985 -1.127627,0.642798 -1.691444,0.964197 1.906654,-1.052288 3.848762,-2.034788 5.916954,-2.735331 1.937591,-0.737291 3.868251,-1.494933 5.828464,-2.170762 2.207122,-0.757624 4.428684,-1.488272 6.709154,-1.995435 2.12674,-0.413768 4.28434,-0.572971 6.45188,-0.516235 2.7019,0.0761 5.39038,0.343904 8.05789,0.786682 2.41991,0.430747 4.80473,1.017581 7.13801,1.796605 1.77001,0.604088 3.50184,1.304965 5.13006,2.234188 1.82868,1.025467 3.57668,2.183781 5.06867,3.672124 1.23205,1.244322 2.31406,2.605495 3.0827,4.190985 0,0 2.7517,-1.562988 2.7517,-1.562988 z"
       transform="matrix(0.86201215,0,0,0.77270249,9.9237166,30.112357)" />
  </g>
</svg>
